<?xml version="1.0" encoding="UTF-8" standalone="no"?>
<!DOCTYPE svg PUBLIC "-//W3C//DTD SVG 1.1//EN" "http://www.w3.org/Graphics/SVG/1.1/DTD/svg11.dtd">
<svg width="100%" height="100%" viewBox="0 0 202 39" version="1.1" xmlns="http://www.w3.org/2000/svg" xmlns:xlink="http://www.w3.org/1999/xlink" xml:space="preserve" xmlns:serif="http://www.serif.com/" style="fill-rule:evenodd;clip-rule:evenodd;stroke-linejoin:round;stroke-miterlimit:2;">
    <g transform="matrix(1,0,0,1,0,-445)">
        <rect id="AFAS" x="0" y="445" width="202" height="39" style="fill:none;"/>
        <g id="AFAS1" serif:id="AFAS">
            <g transform="matrix(0.1,0,0,0.1,101,464.5)">
                <g transform="matrix(1,0,0,1,-942.708333,-116.666667)">
                    <clipPath id="_clip1">
                        <rect x="0" y="0" width="1885.417" height="233.333"/>
                    </clipPath>
                    <g clip-path="url(#_clip1)">
                        <g transform="matrix(4.166667,0,0,4.166667,0,0)">
                            <g>
                                <path d="M196.8,3.7C195.6,7.8 194.8,11.8 193.6,15.9L192.4,15.9C191.2,14.3 189.2,12.7 186.3,11.8C183.9,10.6 181,9.8 178.2,9.8L175,9.8C174.2,10.2 173,10.2 171.8,11C171,11.4 170.2,11.8 169.4,12.6C168.6,13.4 168.2,14.2 168.2,15C167.8,16.6 167.8,17.4 168.6,18.2C169.4,19 171.4,19.8 173.9,20.6C175.5,21 177.1,21.4 178.8,21.8C180,22.2 181.6,22.6 183.3,23.4C186.5,24.6 189,26.6 190.2,28.7C191,31.1 191,34 190.2,38C188.6,43.3 185.3,47.7 180.1,51C174.8,54.2 168.3,55.9 161,55.9C157.3,55.9 153.3,55.5 150.9,54.7C147.7,53.9 145.2,53.1 143.2,51.9C144.8,47.8 146,43.8 147.3,39.3L148.5,39.3C150.5,41.7 153,43 155.8,44.6C158.6,45.8 161.9,46.2 164.7,46.2L167.9,46.2C169.1,45.8 170.3,45.4 171.1,45C172.3,44.6 173.1,44.2 173.9,43.4C174.7,42.6 175.5,41.8 175.5,40.6C176.3,39.4 175.9,38.2 175.1,36.9C174.3,36.5 173.5,35.7 171.9,35.3C170.3,34.9 168.7,34.5 166.6,34.1C164.6,33.3 162.9,32.9 161.3,32.5C157.6,30.9 155.2,28.8 154,26.4C152.8,23.6 152.8,20.7 153.6,16.7C154.8,11.8 157.7,7.8 162.5,4.5C167.4,1.7 173,-0 179.5,-0C182.7,-0 186,0.4 188.8,0.8C191.9,1.6 194.7,2.4 196.8,3.7Z" style="fill:rgb(0,103,177);fill-rule:nonzero;"/>
                            </g>
                            <path d="M69.8,55.2L55.2,55.2L55.2,54.8C58.4,37.8 63.7,17.9 69.8,0.8L107.5,0.8C107.1,0.8 107.1,0.8 107.1,1.2C106.3,4.4 105.5,7.7 104.7,10.9L104.3,11.3L81.2,11.3C80,15 78.8,19 78,22.7L99.5,22.7L99.5,23.1C98.3,26.8 97.5,30.4 96.7,34.1C96.3,34.1 96.3,34.1 96.3,34.5L74.8,34.5C73,41.4 71,48.3 69.8,54.8L69.8,55.2Z" style="fill:rgb(209,17,65);fill-rule:nonzero;"/>
                            <path d="M26,33.7L35.7,33.7C35.3,28.4 35.3,23.2 35.3,17.5C32,23.1 28.8,28.4 26,33.7ZM52.4,55.2L37.7,55.2L37.7,54.8C36.9,51.6 36.5,48.3 36.5,44.7L20.3,44.7C18.3,48.4 16.6,51.6 14.6,55.2L0,55.2C0,55.2 0.4,54.8 0.4,54.4C11,36.9 20.3,18.3 32.9,0.8L48.7,0.8L48.7,1.2C48.3,18.2 49.5,37.7 52.4,54.7L52.4,55.2Z" style="fill:rgb(0,103,177);fill-rule:nonzero;"/>
                            <path d="M116.4,33.7L126.5,33.7C126.5,28.4 126.1,22.7 126.1,17.5C122.9,22.7 119.7,28.4 116.4,33.7ZM141.6,55.2L126.6,55.2L126.6,45.1L110,45.1C108,48.3 105.5,52 103.5,55.2L88.8,55.2C88.8,55.2 88.8,54.8 89.2,54.8C99.7,37.8 111.9,17.5 122.1,0.8L137.5,0.8L137.5,1.2C140.3,17.8 141.6,37.7 141.6,54.7L141.6,55.2Z" style="fill:rgb(0,103,177);fill-rule:nonzero;"/>
                            <path d="M206.9,43L206.5,44.2C204.9,51.5 206.5,56 217.5,56C225.6,56 232.5,52.3 234.5,44.6C236.1,38.9 234.5,35.7 229.2,34.1L223.5,32.1C220.7,30.9 220.3,29.3 220.7,27.6C221.5,25.2 223.9,23.5 226.4,23.5C229.6,23.5 230.1,25.5 229.2,29.2L237.7,29.2L238.1,27.6C240.1,21.1 236.9,17.1 228,17.1C218.3,17.1 213,22.4 211.4,28.5C209.8,33.8 211.8,37 216.7,38.6L222.8,41C224.4,41.8 225.6,43 225.2,45.5C224.4,48.3 222,49.6 219.1,49.6C215.9,49.6 214.6,47.6 215.4,44.3L215.8,43.1L206.9,43.1L206.9,43ZM240.2,36.5C237,49.5 238.2,56.4 249.9,56C260.9,56 266.5,49.5 269.8,36.5C273.5,23.9 272.2,17 260.5,17C249.1,17 243.8,23.9 240.2,36.5ZM249.9,36.5C251.9,29.2 254,23.5 258.4,23.5C262.5,23.5 262.9,27.6 260.4,36.5C257.6,45.8 255.5,49.5 251.5,49.5C246.6,49.5 247.9,44.2 249.9,36.5ZM271,55.2L280.7,55.2L288.8,24.8L294.5,24.8L296.1,18.3L290.4,18.3L291.2,16.3C291.6,14.3 292.8,13.5 295.7,13.5L297.3,13.5L299.3,6.6L294,6.6C287.9,6.6 283.5,8.6 281.4,15.5L280.6,18.3L275.7,18.3L274.1,24.8L279,24.8L271,55.2ZM303,18.3L298.1,18.3L296.5,24.8L301.4,24.8L295.7,45.9C293.7,53.6 294.5,55.6 301.8,55.6C304.2,55.6 306.3,55.6 308.3,55.2L309.9,48.7L307.9,48.7C305.1,48.7 304.7,47.5 305.5,44.6L311.2,24.7L316.5,24.7L318.5,18.2L312.8,18.2L314.8,10.1L305.1,10.1L303,18.3ZM317.2,55.2L328.6,55.2L340.4,28.8L338.4,55.2L349.4,55.2L367.7,18.3L358.4,18.3L346.6,44.7L348.6,18.3L338.1,18.3L326.3,44.7L328.7,18.3L319,18.3L317.2,55.2ZM376.9,29.6L376.9,28.4C377.7,25.6 379.7,23.5 383,23.5C385.8,23.5 386.7,25.1 386.2,28C385.4,30.8 384.2,31.7 380.9,32.5L375.2,34.1C367.9,35.7 364.2,38.6 362.6,45.5C361,50.8 361.8,56 368.7,56C373.2,56 376.4,55.2 379.7,51.5C379.7,52.7 379.7,53.9 380.1,55.2L389,55.2C388.6,53.2 389,51.5 389.8,47.9L395.1,28.4C397.1,21.9 395.9,17 384.6,17C377.3,17 370.4,19.8 368.4,28.4L368,29.6L376.9,29.6ZM381.7,43.8C380.5,47.9 376.8,49.5 374.4,49.5C371.6,49.5 371.2,47.5 372,44.6C372.8,41.4 374.8,39.3 379.3,38.5C380.5,38.1 382.1,37.7 383.8,36.5L381.7,43.8ZM394.7,55.2L404.4,55.2L410.5,32.9C411.7,28 416.2,26.4 419.4,26.4L422.6,26.4L425,17.5C424.2,17.1 423.8,17.1 423,17.1C418.9,17.1 415.7,19.5 412.9,23.2L414.1,18.3L404.8,18.3L394.7,55.2ZM450.3,38.1L450.7,36.1C453.9,24.7 453.5,17 442.2,17C429.2,17 424.8,26.3 421.9,36.1C419.5,45.4 417,56 431.2,56C440.1,56 445.8,51.5 448.6,42.6L439.7,42.6C438.1,47.5 436,49.5 432.8,49.5C429.1,49.5 429.1,45.4 430.4,41L431.2,38.2L450.3,38.2L450.3,38.1ZM432.9,32.5L433.3,30.9C434.1,27.7 436.1,23.6 440.2,23.6C444.3,23.6 443.9,26.8 442.6,32.5L432.9,32.5Z" style="fill:rgb(0,103,177);fill-rule:nonzero;"/>
                        </g>
                    </g>
                </g>
            </g>
        </g>
    </g>
</svg>
