<?xml version="1.0" encoding="UTF-8" standalone="no"?>
<!DOCTYPE svg PUBLIC "-//W3C//DTD SVG 1.1//EN" "http://www.w3.org/Graphics/SVG/1.1/DTD/svg11.dtd">
<svg width="100%" height="100%" viewBox="0 0 202 39" version="1.1" xmlns="http://www.w3.org/2000/svg" xmlns:xlink="http://www.w3.org/1999/xlink" xml:space="preserve" xmlns:serif="http://www.serif.com/" style="fill-rule:evenodd;clip-rule:evenodd;stroke-linejoin:round;stroke-miterlimit:2;">
    <rect id="Exact" x="0" y="0" width="202" height="39" style="fill:none;"/>
    <g id="Exact1" serif:id="Exact">
        <g transform="matrix(0.213333,0,0,0.213333,101,19.5)">
            <g transform="matrix(1,0,0,1,-354.166667,-75)">
                <clipPath id="_clip1">
                    <rect x="0" y="0" width="708.333" height="150"/>
                </clipPath>
                <g clip-path="url(#_clip1)">
                    <g transform="matrix(4.166667,0,0,4.166667,0,0)">
                        <path d="M25.963,11.675L0,11.675L0,18.499L25.963,18.499L25.963,11.675ZM25.963,23.457L0,23.457L0,30.281L3.424,30.281L3.424,30.28L22.538,30.28L22.538,30.281L25.963,30.281L25.963,23.457ZM114.294,29.427L104.058,29.427C102.353,29.427 101.339,28.52 101.339,26.867C101.339,25.215 102.353,24.309 104.058,24.309L114.294,24.309L114.294,29.427ZM109.549,5.758L95.897,5.758L95.897,12.581L109.122,12.581C113.167,12.581 114.261,14.135 114.292,17.699L103.738,17.699C97.501,17.699 94.089,20.898 94.089,26.867C94.089,32.786 97.501,36.038 103.738,36.038L120.318,36.038L120.324,36.037L121.65,36.037L121.65,17.434C121.65,9.543 118.665,5.758 109.549,5.758ZM149.233,29.214L139.319,29.214C134.68,29.214 132.973,26.975 132.973,20.898C132.973,14.821 134.68,12.582 139.319,12.582L147.794,12.582L147.807,12.581L149.131,12.581L149.131,5.758L138.572,5.758C129.137,5.758 125.511,10.449 125.511,20.898C125.511,31.346 129.137,36.037 138.572,36.037L149.233,36.037L149.233,29.214ZM58.684,29.214L46.422,29.214C42.567,29.214 40.776,27.849 40.28,24.418L52.2,24.418L52.2,24.422L56.386,24.422L56.386,23.206C56.389,23.166 56.391,23.125 56.391,23.083L56.391,18.925C56.391,18.884 56.389,18.843 56.386,18.802L56.386,17.599L55.21,17.599C55.16,17.594 55.109,17.592 55.059,17.592L40.253,17.592C40.708,14.037 42.494,12.581 46.422,12.581L58.577,12.581L58.577,5.758L54.922,5.758L54.922,5.759L45.676,5.759C36.24,5.759 32.616,10.449 32.616,20.898C32.616,31.345 36.24,36.038 45.676,36.038L57.351,36.038L57.365,36.037L58.684,36.037L58.684,29.214ZM170,29.214L162.749,29.214C161.31,29.214 160.455,28.202 160.455,26.389L160.455,12.581L169.358,12.581L169.358,5.759L160.455,5.759L160.455,0L153.1,0L153.1,26.921C153.1,33.16 156.032,36.038 162.109,36.038L168.666,36.038L168.68,36.037L170,36.037L170,29.214ZM92.261,34.652L81.494,20.44L91.568,7.144L92.618,5.758L83.978,5.758L83.252,6.717L77.175,14.739L71.097,6.717L70.37,5.758L61.411,5.758L72.695,20.652L61.038,36.038L63.981,36.037L69.677,36.037L70.404,35.079L70.404,35.078L77.015,26.353L83.625,35.078L84.352,36.037L93.311,36.037L92.261,34.652Z" style="fill:rgb(225,20,29);fill-rule:nonzero;"/>
                    </g>
                </g>
            </g>
        </g>
    </g>
</svg>
