<?xml version="1.0" encoding="UTF-8" standalone="no"?>
<!DOCTYPE svg PUBLIC "-//W3C//DTD SVG 1.1//EN" "http://www.w3.org/Graphics/SVG/1.1/DTD/svg11.dtd">
<svg width="100%" height="100%" viewBox="0 0 202 39" version="1.1" xmlns="http://www.w3.org/2000/svg" xmlns:xlink="http://www.w3.org/1999/xlink" xml:space="preserve" xmlns:serif="http://www.serif.com/" style="fill-rule:evenodd;clip-rule:evenodd;stroke-linejoin:round;stroke-miterlimit:2;">
    <g transform="matrix(1,0,0,1,0,-534)">
        <rect id="Gmail" x="0" y="534" width="202" height="39" style="fill:none;"/>
        <g id="Gmail1" serif:id="Gmail">
            <g transform="matrix(0.13,0,0,0.13,101,553.5)">
                <g transform="matrix(1,0,0,1,-507.083333,-116.666667)">
                    <clipPath id="_clip1">
                        <rect x="0" y="0" width="1014.167" height="233.333"/>
                    </clipPath>
                    <g clip-path="url(#_clip1)">
                        <g transform="matrix(4.166667,0,0,4.166667,0,0)">
                            <g>
                                <path d="M5.1,56L17,56L17,27.2L0,14.4L0,50.9C0,53.7 2.3,56 5.1,56" style="fill:rgb(66,133,244);fill-rule:nonzero;"/>
                                <path d="M57.7,56L69.6,56C72.4,56 74.7,53.7 74.7,50.9L74.7,14.4L57.7,27.1" style="fill:rgb(52,168,83);fill-rule:nonzero;"/>
                                <path d="M57.7,5.1L57.7,27.2L74.7,14.5L74.7,7.6C74.7,1.3 67.5,-2.3 62.5,1.5" style="fill:rgb(251,188,4);fill-rule:nonzero;"/>
                                <path d="M17,27.2L17,5.1L37.4,20.4L57.7,5.1L57.7,27.2L37.3,42.4" style="fill:rgb(234,67,53);fill-rule:nonzero;"/>
                                <path d="M0,7.6L0,14.4L17,27.1L17,5.1L12.2,1.5C7.2,-2.2 0,1.4 0,7.6" style="fill:rgb(197,34,31);fill-rule:nonzero;"/>
                            </g>
                            <g>
                                <path d="M145.5,30.6C145.5,36.1 143.9,40.6 140.6,43.9C136.9,47.8 132,49.8 126,49.8C120.2,49.8 115.4,47.8 111.4,43.8C107.4,39.8 105.4,34.9 105.4,29C105.4,23.2 107.4,18.2 111.4,14.2C115.4,10.2 120.3,8.2 126,8.2C128.9,8.2 131.7,8.7 134.3,9.8C136.9,10.8 139,12.3 140.7,14.2L137,17.9C135.8,16.4 134.2,15.3 132.3,14.4C130.4,13.6 128.3,13.2 126.1,13.2C121.8,13.2 118.1,14.7 115.1,17.7C112.1,20.7 110.7,24.5 110.7,29.1C110.7,33.7 112.2,37.4 115.1,40.5C118.1,43.5 121.8,45 126.1,45C130.1,45 133.3,43.9 136,41.7C138.6,39.5 140.1,36.4 140.5,32.5L126,32.5L126,27.7L145.2,27.7C145.4,28.6 145.5,29.6 145.5,30.6Z" style="fill:rgb(68,71,70);fill-rule:nonzero;"/>
                                <path d="M155.9,48.8L150.8,48.8L150.8,21.6L155.7,21.6L155.7,25.4L155.9,25.4C156.7,24.1 157.9,23 159.5,22.1C161.1,21.2 162.7,20.8 164.3,20.8C166.3,20.8 168.1,21.3 169.6,22.2C171.1,23.1 172.2,24.4 172.9,26C175.2,22.5 178.3,20.8 182.3,20.8C185.4,20.8 187.9,21.8 189.6,23.7C191.3,25.6 192.2,28.4 192.2,31.9L192.2,48.9L187,48.9L187,32.6C187,30 186.5,28.2 185.6,27.1C184.7,26 183.1,25.4 180.9,25.4C178.9,25.4 177.3,26.2 176,27.9C174.7,29.6 174,31.5 174,33.8L174,48.8L168.9,48.8L168.9,32.6C168.9,30 168.4,28.2 167.5,27.1C166.6,26 165,25.4 162.8,25.4C160.8,25.4 159.2,26.2 157.9,27.9C156.6,29.6 155.9,31.5 155.9,33.8L155.9,48.8Z" style="fill:rgb(68,71,70);fill-rule:nonzero;"/>
                                <path d="M208.1,20.7C211.9,20.7 214.8,21.7 217,23.7C219.2,25.7 220.3,28.5 220.3,32L220.3,48.8L215.4,48.8L215.4,45L215.2,45C213.1,48.1 210.3,49.7 206.8,49.7C203.8,49.7 201.3,48.8 199.3,47C197.3,45.2 196.3,43 196.3,40.3C196.3,37.5 197.4,35.3 199.5,33.6C201.6,31.9 204.5,31.1 208,31.1C211,31.1 213.5,31.7 215.5,32.8L215.5,31.6C215.5,29.8 214.8,28.3 213.4,27.1C212,25.9 210.3,25.2 208.5,25.2C205.7,25.2 203.4,26.4 201.7,28.8L197.2,26C199.6,22.5 203.3,20.7 208.1,20.7ZM201.5,40.5C201.5,41.8 202.1,42.9 203.2,43.8C204.3,44.7 205.6,45.1 207.2,45.1C209.3,45.1 211.3,44.3 212.9,42.7C214.6,41.1 215.4,39.2 215.4,37.1C213.8,35.8 211.6,35.2 208.7,35.2C206.6,35.2 204.9,35.7 203.5,36.7C202.2,37.8 201.5,39 201.5,40.5Z" style="fill:rgb(68,71,70);fill-rule:nonzero;"/>
                                <path d="M232.7,12.3C232.7,13.3 232.3,14.1 231.6,14.9C230.9,15.6 230,16 229,16C228,16 227.2,15.6 226.4,14.9C225.7,14.2 225.3,13.3 225.3,12.3C225.3,11.3 225.7,10.5 226.4,9.7C227.1,9 228,8.6 229,8.6C230,8.6 230.8,9 231.6,9.7C232.3,10.4 232.7,11.3 232.7,12.3ZM231.6,21.6L231.6,48.8L226.5,48.8L226.5,21.6L231.6,21.6Z" style="fill:rgb(68,71,70);fill-rule:nonzero;"/>
                                <rect x="238.3" y="9.1" width="5.1" height="39.7" style="fill:rgb(68,71,70);fill-rule:nonzero;"/>
                            </g>
                        </g>
                    </g>
                </g>
            </g>
        </g>
    </g>
</svg>
