<?xml version="1.0" encoding="UTF-8" standalone="no"?>
<!DOCTYPE svg PUBLIC "-//W3C//DTD SVG 1.1//EN" "http://www.w3.org/Graphics/SVG/1.1/DTD/svg11.dtd">
<svg width="100%" height="100%" viewBox="0 0 202 39" version="1.1" xmlns="http://www.w3.org/2000/svg" xmlns:xlink="http://www.w3.org/1999/xlink" xml:space="preserve" xmlns:serif="http://www.serif.com/" style="fill-rule:evenodd;clip-rule:evenodd;stroke-linejoin:round;stroke-miterlimit:2;">
    <g transform="matrix(1,0,0,1,0,-623)">
        <rect id="Instagram" x="0" y="623" width="202" height="39" style="fill:none;"/>
        <g id="Instagram1" serif:id="Instagram">
            <g transform="matrix(1.054239,0,0,1.054239,7.530081,-34.004706)">
                <g transform="matrix(0.013483,0,0,0.013483,39.132098,641.69941)">
                    <g transform="matrix(1,0,0,1,-1112.5,-1112.5)">
                        <clipPath id="_clip1">
                            <rect x="0" y="0" width="2225" height="2225"/>
                        </clipPath>
                        <g clip-path="url(#_clip1)">
                            <g transform="matrix(4.166667,0,0,4.166667,0,0)">
                                <path d="M441.028,124.329C441.028,106.604 426.662,92.291 409.003,92.291C391.343,92.291 376.965,106.604 376.965,124.329C376.965,141.989 391.343,156.301 409.003,156.301C426.662,156.301 441.028,141.989 441.028,124.329Z" style="fill:url(#_Linear2);fill-rule:nonzero;"/>
                            </g>
                            <g transform="matrix(4.166667,0,0,4.166667,0,0)">
                                <path d="M483.701,374.409C482.515,400.412 478.166,414.539 474.556,423.922C469.705,436.363 463.92,445.259 454.537,454.589C445.259,463.92 436.363,469.692 423.922,474.489C414.539,478.153 400.359,482.515 374.357,483.754C346.247,484.993 337.918,485.257 266.634,485.257C195.416,485.257 187.02,484.993 158.91,483.754C132.909,482.515 118.794,478.153 109.41,474.489C96.904,469.692 88.074,463.92 78.744,454.589C69.347,445.259 63.562,436.363 58.778,423.922C55.166,414.539 50.752,400.412 49.631,374.409C48.261,346.299 48.01,337.838 48.01,266.699C48.01,195.415 48.261,187.02 49.631,158.909C50.752,132.908 55.166,118.794 58.778,109.331C63.562,96.903 69.347,88.06 78.744,78.73C88.074,69.413 96.904,63.627 109.41,58.778C118.794,55.101 132.909,50.804 158.91,49.566C187.02,48.326 195.416,48.01 266.634,48.01C337.918,48.01 346.247,48.326 374.357,49.566C400.359,50.804 414.539,55.101 423.922,58.778C436.363,63.627 445.259,69.413 454.537,78.73C463.92,88.06 469.705,96.903 474.556,109.331C478.166,118.794 482.515,132.908 483.701,158.909C485.006,187.02 485.322,195.415 485.322,266.699C485.322,337.838 485.006,346.299 483.701,374.409ZM531.712,156.722C530.408,128.308 525.926,108.896 519.271,91.988C512.498,74.447 503.417,59.581 488.551,44.715C473.752,29.916 458.886,20.835 441.345,13.983C424.371,7.393 405.024,2.859 376.597,1.621C348.17,0.25 339.091,-0 266.634,-0C194.242,-0 185.097,0.25 156.67,1.621C128.309,2.859 108.975,7.393 91.922,13.983C74.447,20.835 59.581,29.916 44.782,44.715C29.916,59.581 20.836,74.447 13.996,91.988C7.406,108.896 2.926,128.308 1.555,156.722C0.316,185.149 0,194.242 0,266.699C0,339.091 0.316,348.17 1.555,376.597C2.926,404.958 7.406,424.357 13.996,441.345C20.836,458.82 29.916,473.752 44.782,488.551C59.581,503.351 74.447,512.497 91.922,519.337C108.975,525.926 128.309,530.407 156.67,531.712C185.097,533.017 194.242,533.333 266.634,533.333C339.091,533.333 348.17,533.017 376.597,531.712C405.024,530.407 424.371,525.926 441.345,519.337C458.886,512.497 473.752,503.351 488.551,488.551C503.417,473.752 512.498,458.82 519.271,441.345C525.926,424.357 530.408,404.958 531.712,376.597C533.017,348.17 533.333,339.091 533.333,266.699C533.333,194.242 533.017,185.149 531.712,156.722Z" style="fill:url(#_Linear3);fill-rule:nonzero;"/>
                            </g>
                            <g transform="matrix(4.166667,0,0,4.166667,0,0)">
                                <path d="M266.634,355.512C217.569,355.512 177.756,315.764 177.756,266.699C177.756,217.555 217.569,177.756 266.634,177.756C315.713,177.756 355.578,217.555 355.578,266.699C355.578,315.764 315.713,355.512 266.634,355.512ZM266.634,129.68C191.001,129.68 129.746,191.066 129.746,266.699C129.746,342.267 191.001,403.588 266.634,403.588C342.267,403.588 403.588,342.267 403.588,266.699C403.588,191.066 342.267,129.68 266.634,129.68Z" style="fill:url(#_Linear4);fill-rule:nonzero;"/>
                            </g>
                        </g>
                    </g>
                </g>
                <g transform="matrix(0.029705,0,0,0.029705,109.065338,643.632865)">
                    <g transform="matrix(1,0,0,1,-1485.416667,-420.833333)">
                        <clipPath id="_clip5">
                            <rect x="0" y="0" width="2970.833" height="841.667"/>
                        </clipPath>
                        <g clip-path="url(#_clip5)">
                            <g transform="matrix(4.166667,0,0,4.166667,0,0)">
                                <path d="M36.714,0.7C22.115,6.801 6.062,24.02 0.995,45.677C-5.433,73.093 21.293,84.671 23.477,80.894C26.046,76.413 18.672,74.909 17.166,60.694C15.229,42.311 23.764,21.772 34.535,12.76C36.544,11.113 36.447,13.438 36.447,17.723C36.447,25.452 36.015,94.601 36.015,109.038C36.015,128.581 35.213,134.734 33.733,140.81C32.279,146.989 29.926,151.156 31.698,152.778C33.708,154.569 42.243,150.305 47.191,143.407C53.111,135.144 55.197,125.214 55.583,114.437C56.019,101.458 55.994,80.822 56.019,69.074C56.019,58.271 56.189,26.689 55.849,7.674C55.752,3.025 42.803,-1.845 36.714,0.7ZM709.779,103.295C707.692,103.295 706.701,105.476 705.899,109.136C703.135,121.899 700.226,124.778 696.465,124.778C692.272,124.778 688.51,118.461 687.519,105.815C686.768,95.885 686.887,77.573 687.858,59.36C688.053,55.629 687.03,51.928 676.99,48.27C672.652,46.719 666.368,44.395 663.244,51.949C654.39,73.242 650.947,90.193 650.12,97.05C650.101,97.409 649.663,97.46 649.586,96.639C649.082,91.138 647.916,81.135 647.772,60.109C647.72,56.045 646.872,52.529 642.314,49.67C639.38,47.833 630.455,44.538 627.228,48.439C624.463,51.636 621.241,60.212 617.87,70.383C615.152,78.667 613.261,84.286 613.261,84.286C613.261,84.286 613.28,61.951 613.333,53.473C613.333,50.276 611.149,49.214 610.497,49.019C607.511,48.146 601.617,46.719 599.146,46.719C596.068,46.719 595.338,48.439 595.338,50.933C595.338,51.246 594.829,80.309 594.829,100.632L594.829,103.49C593.154,112.841 587.63,125.533 581.639,125.533C575.647,125.533 572.81,120.226 572.81,96.008C572.81,81.884 573.247,75.736 573.442,65.513C573.561,59.627 573.802,55.1 573.782,54.059C573.73,50.933 568.273,49.332 565.75,48.752C563.206,48.146 560.997,47.951 559.255,48.023C556.83,48.172 555.108,49.768 555.108,52L555.108,55.388C551.979,50.45 546.907,47.007 543.516,46.016C534.446,43.327 524.96,45.724 517.807,55.7C512.134,63.65 508.712,72.631 507.381,85.544C506.384,94.992 506.703,104.558 508.471,112.646C506.338,121.776 502.407,125.533 498.116,125.533C491.857,125.533 487.351,115.356 487.86,97.747C488.225,86.175 490.527,78.061 493.07,66.288C494.165,61.274 493.266,58.662 491.061,56.116C489.047,53.837 484.73,52.652 478.549,54.079C474.155,55.121 467.829,56.234 462.079,57.086C462.079,57.086 462.418,55.7 462.711,53.258C464.191,40.443 450.245,41.485 445.806,45.58C443.139,48.023 441.32,50.907 440.641,56.091C439.552,64.328 446.268,68.202 446.268,68.202C444.064,78.277 438.678,91.45 433.077,100.971C430.092,106.082 427.81,109.839 424.856,113.857C424.829,112.379 424.829,110.875 424.829,109.402C424.778,88.207 425.045,71.523 425.168,65.513C425.291,59.627 425.533,55.218 425.533,54.176C425.482,51.898 424.151,51.005 421.334,49.937C418.863,48.972 415.929,48.27 412.897,48.023C409.089,47.736 406.762,49.768 406.834,52.165L406.834,55.388C403.683,50.45 398.612,47.007 395.266,46.016C386.171,43.327 376.691,45.724 369.538,55.7C363.886,63.65 360.15,74.766 359.081,85.421C358.115,95.402 358.284,103.829 359.641,110.952C358.187,118.07 354.04,125.533 349.338,125.533C343.346,125.533 339.924,120.226 339.924,96.008C339.924,81.884 340.361,75.736 340.582,65.513C340.7,59.627 340.921,55.1 340.895,54.059C340.869,50.933 335.418,49.332 332.869,48.752C330.228,48.126 327.921,47.931 326.173,48.023C323.846,48.218 322.222,50.276 322.222,51.851L322.222,55.388C319.072,50.45 314,47.007 310.629,46.016C301.56,43.327 292.151,45.775 284.947,55.7C280.245,62.172 276.437,69.362 274.474,85.302C273.94,89.906 273.673,94.212 273.698,98.235C271.828,109.664 263.56,122.843 256.818,122.843C252.841,122.843 249.059,115.186 249.059,98.841C249.059,77.091 250.415,46.088 250.657,43.086C250.657,43.086 259.192,42.937 260.867,42.917C265.112,42.891 268.991,42.989 274.644,42.696C277.506,42.553 280.245,32.355 277.285,31.072C275.975,30.512 266.566,30.004 262.83,29.933C259.68,29.861 250.97,29.209 250.97,29.209C250.97,29.209 251.752,8.645 251.921,6.489C252.065,4.647 249.737,3.728 248.381,3.169C245.102,1.768 242.168,1.111 238.725,0.408C233.9,-0.583 231.742,0.387 231.331,4.426C230.699,10.559 230.36,28.532 230.36,28.532C226.819,28.532 214.816,27.823 211.295,27.823C208.027,27.823 204.482,41.875 209.019,42.044C214.235,42.239 223.279,42.434 229.291,42.598C229.291,42.598 229.023,74.114 229.023,83.824L229.023,86.827C225.704,104.044 214.086,113.349 214.086,113.349C216.583,101.941 211.491,93.39 202.277,86.175C198.881,83.486 192.19,78.42 184.693,72.924C184.693,72.924 189.035,68.639 192.889,60.063C195.608,53.981 195.731,46.986 189.035,45.457C177.977,42.917 168.882,51.03 166.143,59.699C164.057,66.385 165.151,71.374 169.293,76.531L170.238,77.697C167.767,82.49 164.324,88.956 161.436,93.97C153.363,107.899 147.274,118.897 142.69,118.897C139.006,118.897 139.052,107.73 139.052,97.265C139.052,88.253 139.731,74.669 140.265,60.622C140.435,55.993 138.107,53.329 134.207,50.933C131.827,49.48 126.781,46.622 123.847,46.622C119.485,46.622 106.823,47.202 94.871,81.715C93.365,86.077 90.405,93.996 90.405,93.996L90.673,52.483C90.673,51.513 90.164,50.594 88.977,49.937C86.963,48.849 81.557,46.622 76.804,46.622C74.496,46.622 73.356,47.689 73.356,49.794L72.97,114.704C72.97,119.646 73.088,125.409 73.577,127.929C74.06,130.449 74.861,132.507 75.832,133.739C76.804,134.929 77.939,135.848 79.784,136.259C81.505,136.623 90.986,137.808 91.475,134.201C92.081,129.864 92.101,125.194 97.075,107.683C104.835,80.457 114.927,67.186 119.68,62.459C120.528,61.638 121.473,61.587 121.422,62.947C121.206,68.926 120.502,83.824 120.019,96.49C118.734,130.424 124.89,136.695 133.744,136.695C140.486,136.695 149.993,129.987 160.203,113.036C166.58,102.449 172.741,92.107 177.201,84.625C180.259,87.478 183.748,90.557 187.216,93.852C195.294,101.479 197.935,108.746 196.168,115.628C194.831,120.903 189.765,126.328 180.767,121.052C178.147,119.523 177.032,118.338 174.39,116.592C172.982,115.648 170.798,115.381 169.514,116.351C166.117,118.897 164.2,122.115 163.085,126.113C162.042,130.013 165.948,132.045 169.997,133.836C173.465,135.412 180.937,136.792 185.711,136.962C204.312,137.593 219.204,128.001 229.558,103.295C231.428,124.635 239.306,136.721 253.01,136.721C262.198,136.721 271.391,124.876 275.42,113.226C276.555,117.973 278.277,122.089 280.487,125.605C291.062,142.314 311.575,138.732 321.857,124.537C325.058,120.128 325.547,118.553 325.547,118.553C327.047,131.953 337.864,136.669 344.05,136.669C351.008,136.669 358.14,133.38 363.156,122.089C363.762,123.326 364.394,124.491 365.124,125.605C375.673,142.314 396.186,138.732 406.495,124.537C406.957,123.834 407.394,123.254 407.753,122.695L408.072,131.511C408.072,131.511 402.178,136.89 398.566,140.205C382.682,154.765 370.602,165.809 369.708,178.644C368.592,195.041 381.881,201.123 391.968,201.918C402.641,202.77 411.808,196.883 417.429,188.6C422.378,181.333 425.63,165.712 425.389,150.259C425.292,144.059 425.143,136.212 424.998,127.76C430.6,121.319 436.905,113.128 442.68,103.542C449.006,93.124 455.748,79.098 459.19,68.177C459.19,68.177 465.085,68.228 471.343,67.838C473.357,67.715 473.938,68.131 473.548,69.583C473.111,71.348 465.645,100.149 472.458,119.333C477.14,132.456 487.638,136.695 493.897,136.695C501.193,136.695 508.182,131.173 511.912,122.987C512.375,123.885 512.837,124.778 513.372,125.605C523.921,142.314 544.362,138.707 554.742,124.537C557.096,121.319 558.406,118.553 558.406,118.553C560.636,132.435 571.453,136.721 577.635,136.721C584.109,136.721 590.219,134.082 595.193,122.356C595.389,127.519 595.702,131.732 596.236,133.061C596.549,133.888 598.394,134.904 599.705,135.412C605.619,137.593 611.636,136.551 613.841,136.089C615.393,135.776 616.606,134.565 616.754,131.368C617.186,122.987 616.919,108.915 619.468,98.43C623.758,80.894 627.736,74.089 629.626,70.722C630.675,68.828 631.883,68.516 631.908,70.502C631.98,74.545 632.201,86.416 633.871,102.402C635.063,114.124 636.687,121.073 637.946,123.28C641.487,129.551 645.901,129.843 649.467,129.843C651.748,129.843 656.501,129.212 656.085,125.214C655.869,123.28 656.234,111.24 660.427,93.95C663.192,82.639 667.775,72.442 669.425,68.71C670.057,67.33 670.324,68.397 670.324,68.613C669.959,76.388 669.183,101.843 672.333,115.746C676.655,134.616 689.09,136.721 693.432,136.721C702.672,136.721 710.266,129.695 712.81,111.194C713.442,106.734 712.518,103.295 709.779,103.295ZM322.026,91.866C321.518,101.648 319.601,109.838 316.548,115.771C310.968,126.548 299.987,129.94 295.157,114.416C291.642,103.203 292.829,87.894 294.309,79.631C296.441,67.376 301.852,58.708 310.29,59.503C318.923,60.355 323.141,71.471 322.026,91.866ZM406.639,92.01C406.156,101.237 403.756,110.536 401.136,115.771C395.73,126.62 384.425,130.012 379.744,114.416C376.548,103.731 377.298,89.952 378.896,81.278C380.961,69.993 385.93,59.503 394.882,59.503C403.587,59.503 407.877,69.049 406.639,92.01ZM408.848,155.077C408.725,171.962 406.084,186.737 400.406,191.048C392.307,197.15 381.419,192.547 383.675,180.245C385.663,169.345 395.098,158.229 408.874,144.639C408.874,144.639 408.922,147.738 408.848,155.077ZM554.938,92.107C554.45,102.258 552.194,110.177 549.409,115.771C543.998,126.62 532.796,129.987 528.017,114.416C525.422,105.912 525.299,91.717 527.169,79.877C529.06,67.812 534.374,58.708 543.15,59.503C551.829,60.329 555.884,71.471 554.938,92.107Z" style="fill:rgb(35,30,31);fill-rule:nonzero;"/>
                            </g>
                        </g>
                    </g>
                </g>
            </g>
        </g>
    </g>
    <defs>
        <linearGradient id="_Linear2" x1="0" y1="0" x2="1" y2="0" gradientUnits="userSpaceOnUse" gradientTransform="matrix(484.10165,-484.0999,484.0999,484.10165,4.80935,527.819)"><stop offset="0" style="stop-color:rgb(255,213,33);stop-opacity:1"/><stop offset="0.05" style="stop-color:rgb(255,213,33);stop-opacity:1"/><stop offset="0.5" style="stop-color:rgb(245,0,0);stop-opacity:1"/><stop offset="0.95" style="stop-color:rgb(185,0,180);stop-opacity:1"/><stop offset="1" style="stop-color:rgb(185,0,180);stop-opacity:1"/></linearGradient>
        <linearGradient id="_Linear3" x1="0" y1="0" x2="1" y2="0" gradientUnits="userSpaceOnUse" gradientTransform="matrix(484.49941,-484.499,484.499,484.49941,4.81059,528.483)"><stop offset="0" style="stop-color:rgb(255,213,33);stop-opacity:1"/><stop offset="0.05" style="stop-color:rgb(255,213,33);stop-opacity:1"/><stop offset="0.5" style="stop-color:rgb(245,0,0);stop-opacity:1"/><stop offset="0.95" style="stop-color:rgb(185,0,180);stop-opacity:1"/><stop offset="1" style="stop-color:rgb(185,0,180);stop-opacity:1"/></linearGradient>
        <linearGradient id="_Linear4" x1="0" y1="0" x2="1" y2="0" gradientUnits="userSpaceOnUse" gradientTransform="matrix(484.38236,-484.3822,484.3822,484.38236,4.93664,528.496)"><stop offset="0" style="stop-color:rgb(255,213,33);stop-opacity:1"/><stop offset="0.05" style="stop-color:rgb(255,213,33);stop-opacity:1"/><stop offset="0.5" style="stop-color:rgb(245,0,0);stop-opacity:1"/><stop offset="0.95" style="stop-color:rgb(185,0,180);stop-opacity:1"/><stop offset="1" style="stop-color:rgb(185,0,180);stop-opacity:1"/></linearGradient>
    </defs>
</svg>
