<?xml version="1.0" encoding="UTF-8" standalone="no"?>
<!DOCTYPE svg PUBLIC "-//W3C//DTD SVG 1.1//EN" "http://www.w3.org/Graphics/SVG/1.1/DTD/svg11.dtd">
<svg width="100%" height="100%" viewBox="0 0 202 39" version="1.1" xmlns="http://www.w3.org/2000/svg" xmlns:xlink="http://www.w3.org/1999/xlink" xml:space="preserve" xmlns:serif="http://www.serif.com/" style="fill-rule:evenodd;clip-rule:evenodd;stroke-linejoin:round;stroke-miterlimit:2;">
    <g transform="matrix(1,0,0,1,0,-178)">
        <rect id="LinkedIn" x="0" y="178" width="202" height="39" style="fill:none;"/>
        <g id="LinkedIn1" serif:id="LinkedIn">
            <g transform="matrix(0.125616,0,0,0.125616,101,197.5)">
                <g transform="matrix(1,0,0,1,-557.3,-136.095833)">
                    <clipPath id="_clip1">
                        <rect x="0" y="0" width="1114.6" height="272.192"/>
                    </clipPath>
                    <g clip-path="url(#_clip1)">
                        <g id="Path_2525" transform="matrix(4.166667,0,0,4.166667,-3755.233333,-889.191667)">
                            <path d="M1165,274.515C1165.004,274.515 1165.008,274.515 1165.012,274.515C1165.67,274.515 1166.212,273.973 1166.212,273.315C1166.212,273.292 1166.211,273.269 1166.21,273.246C1166.21,272.346 1165.667,271.916 1164.553,271.916L1162.753,271.916L1162.753,276.628L1163.43,276.628L1163.43,274.574L1164.262,274.574L1164.281,274.599L1165.572,276.628L1166.296,276.628L1164.907,274.528L1165,274.515ZM1164.217,274.043L1163.432,274.043L1163.432,272.45L1164.427,272.45C1164.941,272.45 1165.527,272.534 1165.527,273.207C1165.527,273.981 1164.934,274.043 1164.213,274.043" style="fill:rgb(10,102,194);fill-rule:nonzero;"/>
                        </g>
                        <g id="Path_2514" transform="matrix(4.166667,0,0,4.166667,-849.166667,-345.470833)">
                            <path d="M203.8,92.5L213.793,92.5L213.793,128.9L232.293,128.9L232.293,138.122L203.8,138.122L203.8,92.5Z" style="fill:rgb(10,102,194);fill-rule:nonzero;"/>
                        </g>
                        <g id="Path_2515" transform="matrix(4.166667,0,0,4.166667,-1206.383333,-337.95)">
                            <path d="M322.443,105.384L332.043,105.384L332.043,136.3L322.443,136.3L322.443,105.384ZM327.243,90.014C330.298,90.015 332.811,92.528 332.811,95.583C332.811,98.638 330.297,101.152 327.242,101.152C324.187,101.152 321.673,98.638 321.673,95.583C321.673,92.528 324.187,90.014 327.242,90.014C327.242,90.014 327.243,90.014 327.243,90.014" style="fill:rgb(10,102,194);fill-rule:nonzero;"/>
                        </g>
                        <g id="Path_2516" transform="matrix(4.166667,0,0,4.166667,-1767.85,-345.441667)">
                            <path d="M506.953,92.486L516.553,92.486L516.553,119.751L527.433,107.168L539.203,107.168L526.603,121.481L538.938,138.111L526.872,138.111L516.681,122.829L516.555,122.829L516.555,138.109L506.955,138.109L506.953,92.486Z" style="fill:rgb(10,102,194);fill-rule:nonzero;"/>
                        </g>
                        <g id="Path_2517" transform="matrix(4.166667,0,0,4.166667,-1380.691667,-500.241667)">
                            <path d="M379.2,144.337L388.419,144.337L388.419,148.562L388.55,148.562C390.424,145.352 393.926,143.428 397.64,143.568C407.375,143.568 409.167,149.973 409.167,158.294L409.167,175.248L399.567,175.248L399.567,160.217C399.567,156.629 399.501,152.017 394.567,152.017C389.577,152.017 388.807,155.924 388.807,159.956L388.807,175.244L379.207,175.244L379.2,144.337Z" style="fill:rgb(10,102,194);fill-rule:nonzero;"/>
                        </g>
                        <g id="Path_2518" transform="matrix(4.166667,0,0,4.166667,-2103.308333,-498.254167)">
                            <path d="M639.93,155.719C639.931,155.674 639.932,155.629 639.932,155.583C639.932,152.426 637.333,149.827 634.176,149.827C634.129,149.827 634.083,149.828 634.036,149.829C630.569,149.613 627.525,152.256 627.252,155.719L639.93,155.719ZM648.062,169.419C644.834,173.334 640.008,175.595 634.934,175.57C625.334,175.57 617.648,169.162 617.648,159.239C617.648,149.316 625.333,142.911 634.934,142.911C643.907,142.911 649.534,149.311 649.534,159.239L649.534,162.249L627.252,162.249C627.823,165.763 630.928,168.346 634.487,168.268C637.26,168.251 639.843,166.826 641.338,164.49L648.062,169.419Z" style="fill:rgb(10,102,194);fill-rule:nonzero;"/>
                        </g>
                        <g id="Path_2519" transform="matrix(4.166667,0,0,4.166667,-2487.891667,-345.4)">
                            <path d="M761.844,114.645C757.044,114.645 754.164,117.85 754.164,122.52C754.164,127.19 757.043,130.398 761.844,130.398C766.645,130.398 769.531,127.198 769.531,122.52C769.531,117.842 766.65,114.645 761.844,114.645M778.369,138.082L769.531,138.082L769.531,133.982L769.4,133.982C767.154,137.003 763.62,138.805 759.856,138.85C750.632,138.85 744.556,132.193 744.556,122.779C744.556,114.133 749.933,106.194 758.772,106.194C762.745,106.194 766.456,107.281 768.633,110.294L768.759,110.294L768.759,92.473L778.368,92.473L778.369,138.082Z" style="fill:rgb(10,102,194);fill-rule:nonzero;"/>
                        </g>
                        <g id="Path_2520" transform="matrix(4.166667,0,0,4.166667,-2970.4,-238.979167)">
                            <path d="M958.98,112.559L949.38,112.559L949.38,97.525C949.38,93.94 949.316,89.325 944.387,89.325C939.387,89.325 938.622,93.231 938.622,97.264L938.622,112.558L929.022,112.558L929.022,81.642L938.238,81.642L938.238,85.867L938.367,85.867C940.244,82.658 943.746,80.735 947.46,80.873C957.19,80.873 958.984,87.273 958.984,95.599L958.98,112.559ZM918.19,77.416C918.19,77.416 918.189,77.416 918.189,77.416C915.133,77.416 912.618,74.901 912.618,71.845C912.618,68.789 915.133,66.274 918.189,66.274C921.245,66.274 923.759,68.788 923.76,71.844C923.76,71.844 923.76,71.845 923.76,71.845C923.76,74.901 921.246,77.415 918.19,77.416M922.99,112.559L913.38,112.559L913.38,81.642L922.99,81.642L922.99,112.559ZM963.766,57.359L908.556,57.359C905.964,57.33 903.807,59.437 903.775,62.029L903.775,117.468C903.806,120.061 905.963,122.171 908.556,122.143L963.766,122.143C966.364,122.176 968.53,120.066 968.566,117.468L968.566,62.025C968.529,59.428 966.363,57.321 963.766,57.355" style="fill:rgb(10,102,194);fill-rule:nonzero;"/>
                        </g>
                        <g id="Path_2526" transform="matrix(4.166667,0,0,4.166667,-3722.841667,-865.870833)">
                            <path d="M1156.525,264.22C1154.118,264.243 1152.15,266.23 1152.15,268.638C1152.15,271.061 1154.144,273.056 1156.568,273.056C1158.991,273.056 1160.986,271.061 1160.986,268.638C1160.986,266.23 1159.017,264.243 1156.61,264.22L1156.525,264.22M1156.525,272.55C1156.504,272.55 1156.482,272.551 1156.461,272.551C1154.335,272.551 1152.587,270.802 1152.587,268.677C1152.587,266.551 1154.335,264.803 1156.461,264.803C1158.561,264.803 1160.299,266.511 1160.334,268.612L1160.334,268.677C1160.378,270.756 1158.705,272.503 1156.626,272.548L1156.526,272.548" style="fill:rgb(10,102,194);fill-rule:nonzero;"/>
                        </g>
                    </g>
                </g>
            </g>
        </g>
    </g>
</svg>
