<svg width="24" height="25" viewBox="0 0 24 25" fill="none" xmlns="http://www.w3.org/2000/svg">
<path d="M12 2.5C6.48 2.5 2 6.98 2 12.5s4.48 10 10 10 10-4.48 10-10-4.48-10-10-10zm5.8 11.33c.05.17.08.34.08.52 0 2.73-3.18 4.95-7.1 4.95s-7.1-2.22-7.1-4.95c0-.18.03-.35.08-.52a2 2 0 01-.56-1.48c0-1.1.9-2 2-2 .53 0 1.01.21 1.37.55a9.53 9.53 0 014.22-1.33l.8-3.76a.3.3 0 01.35-.23l2.67.56c.18-.37.56-.62 1-.62a1.1 1.1 0 010 2.2 1.1 1.1 0 01-1.07-.85l-2.38-.5-.71 3.34a9.53 9.53 0 014.16 1.33c.36-.34.84-.55 1.37-.55 1.1 0 2 .9 2 2 0 .56-.23 1.07-.6 1.43zM8.5 14a1.25 1.25 0 100 2.5 1.25 1.25 0 000-2.5zm5.25 1.25a1.25 1.25 0 102.5 0 1.25 1.25 0 00-2.5 0zm-5.13 3.28a.3.3 0 01.43-.43c.67.67 1.73 1 2.95 1s2.28-.33 2.95-1a.3.3 0 01.43.43c-.8.8-2 1.18-3.38 1.18s-2.58-.38-3.38-1.18z" fill="#FCFCFC"/>
</svg>
