<?xml version="1.0" encoding="UTF-8" standalone="no"?>
<!DOCTYPE svg PUBLIC "-//W3C//DTD SVG 1.1//EN" "http://www.w3.org/Graphics/SVG/1.1/DTD/svg11.dtd">
<svg width="100%" height="100%" viewBox="0 0 202 39" version="1.1" xmlns="http://www.w3.org/2000/svg" xmlns:xlink="http://www.w3.org/1999/xlink" xml:space="preserve" xmlns:serif="http://www.serif.com/" style="fill-rule:evenodd;clip-rule:evenodd;stroke-linejoin:round;stroke-miterlimit:2;">
    <g transform="matrix(1,0,0,1,0,-356)">
        <rect id="Whatsapp" x="0" y="356" width="202" height="39" style="fill:none;"/>
        <g id="Whatsapp1" serif:id="Whatsapp">
            <g transform="matrix(0.024678,0,0,0.024678,101,375.5)">
                <g transform="matrix(1,0,0,1,-3095.125,-719.25)">
                    <clipPath id="_clip1">
                        <rect x="0" y="0" width="6190.25" height="1438.5"/>
                    </clipPath>
                    <g clip-path="url(#_clip1)">
                        <g transform="matrix(4.166667,0,0,4.166667,0,0)">
                            <path d="M172.51,0C78.22,0 1.47,76.74 1.43,171.06C1.42,201.21 9.3,230.64 24.27,256.58L0,345.24L90.69,321.45C115.68,335.08 143.81,342.26 172.44,342.27L172.51,342.27C266.79,342.27 343.54,265.52 343.58,171.2C343.6,125.49 325.82,82.51 293.52,50.18C261.22,17.84 218.27,0.02 172.51,0ZM172.51,313.38L172.45,313.38C146.94,313.38 121.91,306.51 100.08,293.56L94.89,290.48L41.08,304.6L55.44,252.13L52.06,246.75C37.83,224.11 30.31,197.94 30.32,171.08C30.35,92.68 94.14,28.9 172.57,28.9C210.55,28.91 246.25,43.72 273.09,70.6C299.94,97.47 314.71,133.2 314.7,171.19C314.67,249.59 250.88,313.38 172.51,313.38ZM250.5,206.89C246.23,204.75 225.21,194.41 221.29,192.98C217.37,191.55 214.52,190.84 211.67,195.12C208.82,199.4 200.63,209.03 198.14,211.88C195.65,214.74 193.15,215.09 188.88,212.95C184.61,210.81 170.83,206.29 154.51,191.73C141.8,180.4 133.22,166.4 130.73,162.12C128.24,157.84 130.46,155.53 132.61,153.4C134.53,151.49 136.88,148.41 139.02,145.91C141.16,143.41 141.87,141.63 143.29,138.77C144.71,135.92 144,133.42 142.93,131.28C141.86,129.14 133.31,108.1 129.75,99.54C126.28,91.21 122.76,92.33 120.13,92.2C117.64,92.07 114.79,92.05 111.94,92.05C109.09,92.05 104.46,93.12 100.54,97.4C96.62,101.68 85.58,112.02 85.58,133.06C85.58,154.1 100.9,174.43 103.03,177.28C105.17,180.13 133.17,223.31 176.05,241.82C186.25,246.22 194.21,248.85 200.42,250.82C210.66,254.07 219.98,253.61 227.34,252.51C235.55,251.28 252.63,242.17 256.19,232.18C259.75,222.2 259.75,213.64 258.68,211.85C257.61,210.07 254.76,209 250.49,206.86L250.5,206.89ZM553.15,204.28L552.68,204.28L524.32,89.86L490.14,89.86L461.31,202.88L460.85,202.88L434.58,89.86L398.08,89.86L442.02,255.91L478.99,255.91L506.65,142.88L507.12,142.88L535.25,255.91L571.52,255.91L616.16,89.86L580.36,89.86L553.15,204.28ZM727.51,146.02C724.26,141.76 719.8,138.43 714.15,136.02C708.49,133.63 701.24,132.43 692.41,132.43C686.21,132.43 679.86,134.01 673.34,137.2C666.83,140.37 661.49,145.45 657.3,152.43L656.6,152.43L656.6,89.86L623.59,89.86L623.59,255.9L656.6,255.9L656.6,192.88C656.6,180.63 658.61,171.84 662.65,166.48C666.68,161.14 673.19,158.46 682.18,158.46C690.08,158.46 695.58,160.9 698.69,165.79C701.79,170.67 703.34,178.07 703.34,187.99L703.34,255.9L736.36,255.9L736.36,181.95C736.36,174.51 735.69,167.73 734.38,161.6C733.06,155.49 730.78,150.29 727.52,146.02L727.51,146.02ZM863.52,229.16L863.52,166.61C863.52,159.31 861.9,153.46 858.63,149.05C855.38,144.63 851.2,141.18 846.09,138.7C840.97,136.22 835.31,134.55 829.11,133.7C822.91,132.85 816.79,132.42 810.75,132.42C804.09,132.42 797.46,133.07 790.88,134.4C784.28,135.72 778.36,137.93 773.09,141.03C767.82,144.13 763.47,148.24 760.08,153.35C756.66,158.47 754.72,164.9 754.26,172.66L787.27,172.66C787.89,166.15 790.07,161.49 793.79,158.7C797.51,155.91 802.62,154.52 809.13,154.52C812.07,154.52 814.82,154.71 817.38,155.1C819.93,155.49 822.18,156.25 824.12,157.42C826.06,158.58 827.61,160.21 828.77,162.31C829.93,164.4 830.51,167.24 830.51,170.79C830.66,174.21 829.65,176.79 827.49,178.58C825.31,180.37 822.37,181.73 818.65,182.65C814.93,183.59 810.67,184.29 805.86,184.74C801.05,185.22 796.17,185.85 791.22,186.61C786.25,187.39 781.33,188.43 776.46,189.75C771.58,191.06 767.22,193.05 763.43,195.67C759.63,198.32 756.53,201.84 754.12,206.26C751.72,210.68 750.52,216.31 750.52,223.12C750.52,229.32 751.57,234.67 753.66,239.16C755.75,243.67 758.66,247.38 762.38,250.33C766.1,253.28 770.44,255.45 775.4,256.85C780.35,258.24 785.71,258.94 791.44,258.94C798.88,258.94 806.17,257.85 813.29,255.69C820.42,253.5 826.63,249.72 831.9,244.28C832.05,246.3 832.32,248.28 832.71,250.21C833.1,252.14 833.6,254.05 834.22,255.9L867.7,255.9C866.15,253.43 865.06,249.71 864.44,244.74C863.81,239.78 863.5,234.6 863.5,229.16L863.52,229.16ZM830.51,209.39C830.51,211.27 830.32,213.75 829.93,216.84C829.55,219.95 828.5,223 826.79,226.03C825.08,229.05 822.44,231.66 818.88,233.82C815.32,236 810.28,237.08 803.76,237.08C801.13,237.08 798.57,236.85 796.09,236.37C793.61,235.91 791.44,235.09 789.58,233.93C787.72,232.77 786.25,231.18 785.16,229.16C784.08,227.14 783.53,224.67 783.53,221.73C783.53,218.63 784.08,216.06 785.16,214.05C786.25,212.04 787.68,210.37 789.47,209.05C791.24,207.73 793.34,206.69 795.74,205.91C798.14,205.14 800.58,204.52 803.07,204.05C805.7,203.59 808.34,203.19 810.97,202.89C813.62,202.59 816.13,202.19 818.53,201.73C820.94,201.26 823.18,200.68 825.28,199.98C827.37,199.28 829.11,198.33 830.51,197.08L830.51,209.4L830.51,209.39ZM925.17,99.63L892.12,99.63L892.12,135.67L872.13,135.67L872.13,157.76L892.12,157.76L892.12,228.7C892.12,234.75 893.14,239.63 895.15,243.35C897.17,247.07 899.92,249.95 903.4,251.96C906.89,253.98 910.92,255.33 915.5,256.02C920.06,256.71 924.92,257.07 930.03,257.07C933.3,257.07 936.62,256.99 940.04,256.85C943.44,256.69 946.54,256.39 949.34,255.91L949.34,230.33C947.78,230.64 946.16,230.89 944.45,231.03C942.75,231.19 940.97,231.27 939.11,231.27C933.54,231.27 929.81,230.33 927.95,228.47C926.1,226.61 925.17,222.89 925.17,217.3L925.17,157.76L949.35,157.76L949.35,135.67L925.17,135.67L925.17,99.63ZM1061.6,203.24C1059.43,199.44 1056.56,196.26 1053,193.7C1049.44,191.15 1045.36,189.09 1040.8,187.53C1036.22,185.99 1031.53,184.68 1026.73,183.59C1022.08,182.5 1017.52,181.49 1013.02,180.56C1008.52,179.63 1004.53,178.58 1001.04,177.43C997.56,176.26 994.74,174.76 992.57,172.89C990.39,171.03 989.32,168.64 989.32,165.68C989.32,163.2 989.92,161.22 991.17,159.75C992.41,158.28 993.93,157.16 995.71,156.37C997.5,155.6 999.46,155.1 1001.63,154.86C1003.8,154.63 1005.82,154.52 1007.67,154.52C1013.56,154.52 1018.68,155.64 1023.03,157.89C1027.36,160.14 1029.77,164.44 1030.22,170.79L1061.61,170.79C1060.99,163.35 1059.09,157.19 1055.92,152.3C1052.75,147.42 1048.75,143.51 1043.95,140.56C1039.15,137.61 1033.69,135.52 1027.55,134.28C1021.43,133.04 1015.12,132.42 1008.62,132.42C1002.12,132.42 995.74,133 989.56,134.15C983.35,135.32 977.77,137.34 972.82,140.21C967.85,143.08 963.87,146.99 960.84,151.95C957.81,156.91 956.3,163.27 956.3,171.02C956.3,176.29 957.39,180.76 959.57,184.4C961.72,188.05 964.6,191.06 968.15,193.47C971.73,195.87 975.8,197.82 980.37,199.28C984.94,200.77 989.63,202.04 994.43,203.13C1006.22,205.61 1015.41,208.09 1021.99,210.58C1028.58,213.06 1031.87,216.78 1031.87,221.74C1031.87,224.69 1031.18,227.11 1029.78,229.05C1028.38,231 1026.64,232.54 1024.55,233.7C1022.45,234.87 1020.12,235.73 1017.57,236.26C1015.01,236.81 1012.56,237.08 1010.24,237.08C1006.98,237.08 1003.85,236.69 1000.83,235.92C997.8,235.14 995.13,233.94 992.8,232.31C990.48,230.68 988.57,228.59 987.1,226.03C985.64,223.47 984.89,220.42 984.89,216.84L953.51,216.84C953.83,224.9 955.64,231.61 958.98,236.96C962.3,242.31 966.56,246.61 971.76,249.87C976.95,253.12 982.89,255.45 989.56,256.85C996.21,258.24 1003.03,258.94 1010,258.94C1016.97,258.94 1023.53,258.28 1030.12,256.97C1036.71,255.65 1042.56,253.36 1047.67,250.1C1052.8,246.85 1056.92,242.55 1060.11,237.2C1063.28,231.84 1064.87,225.22 1064.87,217.31C1064.87,211.72 1063.79,207.04 1061.62,203.25L1061.6,203.24ZM1127.16,89.86L1064.39,255.91L1101.12,255.91L1114.13,218.93L1176.21,218.93L1188.75,255.91L1226.66,255.91L1164.59,89.86L1127.15,89.86L1127.16,89.86ZM1123.68,191.73L1145.3,130.8L1145.76,130.8L1166.69,191.73L1123.68,191.73ZM1340.82,151.96C1336.33,146.07 1330.67,141.34 1323.85,137.78C1317.03,134.21 1308.9,132.43 1299.45,132.43C1292,132.43 1285.19,133.9 1278.99,136.84C1272.77,139.79 1267.67,144.52 1263.65,151.03L1263.18,151.03L1263.18,135.67L1231.78,135.67L1231.78,298.01L1264.82,298.01L1264.82,241.03L1265.27,241.03C1269.3,246.93 1274.46,251.38 1280.75,254.39C1287.01,257.41 1293.88,258.93 1301.32,258.93C1310.16,258.93 1317.87,257.21 1324.45,253.81C1331.04,250.4 1336.54,245.82 1340.96,240.08C1345.38,234.34 1348.66,227.76 1350.85,220.32C1353,212.87 1354.1,205.12 1354.1,197.06C1354.1,188.53 1353,180.36 1350.85,172.52C1348.66,164.7 1345.34,157.83 1340.84,151.94L1340.82,151.96ZM1319.67,210.33C1318.73,214.99 1317.14,219.05 1314.9,222.54C1312.65,226.03 1309.71,228.87 1306.05,231.03C1302.42,233.2 1297.88,234.3 1292.46,234.3C1287.04,234.3 1282.71,233.21 1278.99,231.03C1275.27,228.87 1272.28,226.03 1270.03,222.54C1267.78,219.05 1266.16,214.99 1265.15,210.33C1264.14,205.68 1263.65,200.95 1263.65,196.16C1263.65,191.37 1264.1,186.38 1265.03,181.74C1265.97,177.09 1267.55,172.98 1269.81,169.4C1272.04,165.84 1275,162.94 1278.65,160.69C1282.29,158.44 1286.81,157.3 1292.24,157.3C1297.67,157.3 1301.98,158.44 1305.61,160.69C1309.25,162.93 1312.24,165.87 1314.56,169.52C1316.88,173.17 1318.54,177.32 1319.56,181.96C1320.58,186.61 1321.06,191.35 1321.06,196.16C1321.06,200.97 1320.61,205.69 1319.68,210.33L1319.67,210.33ZM1482.4,172.54C1480.23,164.72 1476.9,157.85 1472.4,151.96C1467.9,146.07 1462.26,141.34 1455.44,137.78C1448.61,134.21 1440.47,132.43 1431.02,132.43C1423.59,132.43 1416.76,133.9 1410.57,136.84C1404.37,139.79 1399.25,144.52 1395.22,151.03L1394.77,151.03L1394.77,135.67L1363.38,135.67L1363.38,298.01L1396.39,298.01L1396.39,241.03L1396.86,241.03C1400.89,246.93 1406.05,251.38 1412.32,254.39C1418.59,257.41 1425.46,258.93 1432.9,258.93C1441.73,258.93 1449.43,257.21 1456.03,253.81C1462.61,250.4 1468.12,245.82 1472.53,240.08C1476.96,234.34 1480.24,227.76 1482.41,220.32C1484.59,212.87 1485.67,205.12 1485.67,197.06C1485.67,188.53 1484.59,180.36 1482.41,172.52L1482.4,172.54ZM1451.24,210.33C1450.32,214.99 1448.73,219.05 1446.48,222.54C1444.22,226.03 1441.28,228.87 1437.64,231.03C1434,233.2 1429.47,234.3 1424.04,234.3C1418.61,234.3 1414.27,233.21 1410.55,231.03C1406.82,228.87 1403.85,226.03 1401.59,222.54C1399.35,219.05 1397.72,214.99 1396.71,210.33C1395.7,205.68 1395.2,200.95 1395.2,196.16C1395.2,191.37 1395.67,186.38 1396.6,181.74C1397.53,177.09 1399.12,172.98 1401.37,169.4C1403.61,165.84 1406.56,162.94 1410.21,160.69C1413.84,158.44 1418.38,157.3 1423.81,157.3C1429.24,157.3 1433.53,158.44 1437.17,160.69C1440.82,162.93 1443.8,165.87 1446.13,169.52C1448.46,173.17 1450.13,177.32 1451.13,181.96C1452.15,186.61 1452.64,191.35 1452.64,196.16C1452.64,200.97 1452.17,205.69 1451.24,210.33Z" style="fill:rgb(37,211,102);fill-rule:nonzero;"/>
                        </g>
                    </g>
                </g>
            </g>
        </g>
    </g>
</svg>
